<svg width="2355" height="2354" viewBox="0 0 2355 2354" fill="none" xmlns="http://www.w3.org/2000/svg">
<path fill-rule="evenodd" clip-rule="evenodd" d="M1170.01 270.759C1664.34 270.759 2066.07 671.184 2066.07 1165.52C2066.07 1414.64 1964.34 1640.29 1799.99 1802.03V2121.58H553.066V1815.07C382.201 1652.03 275.247 1421.17 275.247 1165.52C275.247 671.184 675.672 270.759 1170.01 270.759Z" fill="#FEFEFE"/>
<path d="M1819.56 1805.94V2148.97H525.676V1805.94C444.808 1722.46 379.592 1624.64 335.245 1516.38C290.899 1410.73 267.421 1294.65 267.421 1173.35C267.421 675.097 674.368 268.15 1172.62 268.15C1421.74 268.15 1647.39 369.887 1811.73 534.231C1976.08 697.271 2077.81 924.222 2077.81 1173.35C2077.81 1294.65 2053.03 1410.73 2009.99 1516.38C1965.64 1624.64 1900.43 1722.46 1819.56 1805.94ZM1796.08 1800.72L1798.69 1792.9C1879.56 1710.72 1943.47 1614.21 1987.81 1507.25C2030.86 1404.21 2054.33 1292.04 2054.33 1173.35C2054.33 930.743 1955.21 710.314 1794.78 549.883C1635.65 390.756 1415.22 291.628 1172.62 291.628C687.411 291.628 290.899 688.14 290.899 1173.35C290.899 1292.04 314.376 1404.21 356.114 1507.25C400.461 1614.21 465.677 1710.72 546.545 1792.9L549.153 1800.72V2125.5H1796.08V1800.72Z" fill="#006CB5" stroke="#006CB5" stroke-width="2.3612"/>
<path fill-rule="evenodd" clip-rule="evenodd" d="M1180.42 511.15H1214.06L1247.7 514.075L1281.34 518.463L1313.51 524.313L1345.69 531.626L1377.87 540.401L1408.58 550.639L1437.83 562.339L1468.54 576.964L1496.33 591.59L1551.91 623.765L1576.77 642.778L1603.1 663.253L1626.5 683.729L1649.9 705.667L1671.84 729.067L1692.32 752.468L1712.79 777.331L1730.34 803.656L1747.89 831.444L1763.98 859.232L1778.61 887.02L1791.77 916.271L1815.17 977.697L1823.95 1009.87L1831.26 1042.05L1837.11 1074.22L1841.5 1107.86L1844.42 1141.5V1175.14L1842.96 1221.94L1838.57 1267.28L1829.8 1311.15L1819.56 1355.03L1806.39 1397.44L1790.31 1438.39L1771.29 1477.88L1749.35 1517.37L1725.95 1553.93L1699.63 1589.03C1686.46 1605.12 1671.84 1621.21 1657.21 1637.3C1641.13 1653.39 1625.04 1668.01 1608.95 1681.17L1575.31 1708.96L1538.75 1733.82L1494.87 1760.15H865.972L822.095 1733.82L785.531 1708.96L751.892 1681.17C735.804 1668.01 719.716 1653.39 703.628 1637.3L674.377 1605.12L648.051 1571.48L623.187 1534.92L599.787 1498.36L579.311 1458.87L561.76 1417.92L547.135 1376.97L535.434 1333.09L525.196 1289.22L519.346 1243.88L516.421 1198.54V1141.5L519.346 1107.86L523.734 1074.22L529.584 1042.05L536.897 1009.87L545.672 977.697L555.91 946.984L567.61 916.271L582.236 887.02L596.861 859.232L629.038 803.656L648.051 777.331L668.527 752.468L689.002 729.067L710.941 705.667L734.342 683.729L757.742 663.253L782.606 642.778L808.932 623.765L864.509 591.59L892.298 576.964L921.549 562.339L952.262 550.639L982.976 540.401L1015.15 531.626L1047.33 524.313L1079.5 518.463L1113.14 514.075L1146.78 511.15H1180.42Z" fill="#D7B56D"/>
<path fill-rule="evenodd" clip-rule="evenodd" d="M1178.66 534.15C1529.47 534.15 1815.42 821.721 1815.42 1172.71C1815.42 1411.61 1682.76 1621.02 1486.72 1730.15H870.594C674.554 1621.02 540.421 1411.61 540.421 1172.71C540.421 821.721 827.849 534.15 1178.66 534.15Z" fill="#006CB5"/>
<path fill-rule="evenodd" clip-rule="evenodd" d="M1181.75 1003.79L1196.09 994.655L1209.14 986.829L1223.48 981.612L1237.83 977.699L1252.18 975.09L1266.53 973.786L1282.18 972.481L1297.83 973.786L1312.18 975.09L1359.13 982.916L1374.79 986.829L1389.13 990.742L1403.48 993.351L1411.31 1003.79L1588.69 1400.3L1567.82 1395.08L1543.04 1389.86L1515.65 1383.34L1486.96 1376.82L1456.96 1371.6L1394.35 1361.17L1363.05 1358.56L1331.74 1357.25L1301.74 1358.56L1273.05 1361.17L1245.66 1367.69L1222.18 1376.82L1200.01 1389.86L1181.75 1406.82L1167.4 1427.69L1155.66 1406.82L1137.4 1391.17L1116.53 1378.12L1091.75 1368.99L1065.66 1362.47L1036.97 1358.56H975.665L943.057 1362.47L911.753 1366.39L880.45 1371.6L849.146 1378.12L820.451 1383.34L793.06 1389.86L768.278 1395.08L746.105 1400.3L924.796 1003.79L932.622 993.351L946.97 990.742L962.622 986.829L978.273 984.22L992.621 980.307L1008.27 977.699L1023.92 976.394L1038.27 973.786H1068.27L1083.92 975.09L1098.27 977.699L1111.31 981.612L1126.97 986.829L1140.01 994.655L1153.05 1003.79C1160.88 1010.31 1164.79 1014.22 1167.4 1016.83C1170.01 1015.52 1172.62 1012.92 1181.75 1003.79Z" fill="#FEFEFE"/>
<path fill-rule="evenodd" clip-rule="evenodd" d="M1312.18 975.09L1359.13 982.916L1374.79 986.829L1389.13 990.742L1403.48 993.351L1416.52 1011.61L1419.13 1012.92H1423.05L1618.69 1431.6L1606.95 1430.3H1562.61L1533.91 1428.99H1501.3L1466.09 1427.69L1428.26 1426.38L1391.74 1425.08L1356.52 1423.78H1323.92L1292.61 1422.47L1266.53 1421.17H1245.66L1232.61 1419.86H1219.57L1213.05 1423.78L1211.75 1430.3L1218.27 1432.91L1220.88 1435.51L1222.18 1438.12L1220.88 1440.73L1218.27 1442.04H1117.84L1115.23 1440.73V1435.51L1117.84 1432.91L1124.36 1430.3L1123.05 1423.78L1116.53 1419.86H1103.49L1089.14 1421.17H1069.58L1043.49 1422.47L1013.49 1423.78H979.578L944.361 1425.08L871.319 1427.69L836.103 1428.99H802.19L772.191 1430.3H729.149L717.41 1431.6L914.362 1012.92H916.97L919.579 1011.61L932.622 993.351L946.97 990.742L962.621 986.829L978.273 984.22L992.621 980.307L1008.27 977.699L1023.92 976.394L1038.27 973.786H1068.27L1083.92 975.09L1098.27 977.699L1111.31 981.612L1126.97 986.829L1140.01 994.655L1153.05 1003.79L1166.09 1015.52L1167.4 1016.83V1009L1156.96 998.568L1143.92 989.438L1128.27 981.612L1113.92 975.09L1099.57 971.177L1083.92 968.569L1068.27 967.264H1038.27L1022.62 969.873L1006.97 971.177L991.316 973.786L975.665 977.699L961.317 980.307L945.665 984.22L931.318 986.829L928.709 989.438L915.666 1007.7H913.057L909.144 1009L709.584 1432.91L712.193 1438.12L716.106 1436.82H748.713L772.191 1435.51H802.19L836.103 1434.21L871.319 1432.91H907.84L944.361 1431.6L979.578 1430.3H1013.49L1043.49 1428.99L1069.58 1427.69H1089.14L1103.49 1426.38H1115.23L1117.84 1427.69L1111.31 1430.3L1107.4 1438.12L1110.01 1445.95L1117.84 1448.56H1218.27L1226.09 1445.95L1228.7 1438.12L1226.09 1430.3L1218.27 1427.69L1220.88 1426.38H1232.61L1245.66 1427.69H1266.53L1292.61 1428.99L1323.92 1430.3H1356.52L1391.74 1431.6L1428.26 1432.91H1466.09L1501.3 1434.21L1533.91 1435.51H1562.61L1587.39 1436.82H1620L1623.91 1438.12L1626.52 1432.91L1426.96 1009L1424.35 1007.7H1420.44L1407.39 988.133L1406.09 986.829L1390.44 984.22L1374.79 980.307L1360.44 977.699L1344.79 973.786L1329.13 971.177L1313.48 969.873L1297.83 967.264L1282.18 965.96L1250.88 968.569L1236.53 971.177L1220.88 975.09L1206.53 981.612L1192.18 989.438L1179.14 998.568L1167.4 1009V1016.83L1170.01 1015.52L1181.75 1003.79L1196.09 994.655L1209.14 986.829L1223.48 981.612L1237.83 977.699L1252.18 975.09L1266.53 973.786L1282.18 972.482L1297.83 973.786L1312.18 975.09Z" fill="#2B2A29"/>
<path fill-rule="evenodd" clip-rule="evenodd" d="M1378.7 874.658C1365.66 926.83 1284.79 967.264 1185.66 972.481L1184.36 1005.09L1222.18 1009L1300.44 975.09C1329.13 959.438 1361.74 938.569 1381.31 909.874C1387.83 900.744 1393.05 887.701 1391.74 875.962C1387.83 856.397 1373.48 840.745 1357.83 830.311C1339.57 817.268 1316.09 808.137 1292.61 802.92C1252.18 796.399 1209.14 797.703 1168.7 810.746C1142.62 821.181 1120.44 840.745 1090.44 853.788C1082.62 861.614 1068.27 860.31 1061.75 851.18L1069.58 829.006C1078.71 799.007 1116.53 778.138 1156.96 772.921C1188.27 762.486 1220.88 758.573 1254.79 761.182C1297.83 762.486 1344.79 775.529 1380 801.616C1407.39 823.789 1429.57 855.093 1424.35 891.614C1420.44 912.483 1408.7 930.743 1394.35 945.091C1383.92 956.829 1372.18 967.264 1359.13 975.09C1334.35 992.046 1309.57 1003.78 1284.79 1014.22L1373.48 1020.74C1374.79 1016.83 1378.7 1014.22 1383.92 1014.22C1390.44 1014.22 1395.65 1019.44 1395.65 1025.96C1395.65 1029.87 1394.35 1032.48 1391.74 1033.78L1497.39 1284.21H1488.26L1387.83 1044.22V1284.21H1380V1044.22L1278.27 1284.21H1270.44L1376.09 1035.09L1373.48 1032.48H1232.61C1215.66 1039 1198.7 1045.52 1183.05 1052.04L1177.83 1202.04C1197.4 1212.48 1216.96 1224.21 1228.7 1245.08C1236.53 1258.13 1231.31 1275.08 1223.48 1288.13C1216.96 1295.95 1210.44 1303.78 1202.62 1310.3C1240.44 1316.82 1267.83 1335.08 1273.05 1355.95H1057.84C1064.36 1329.86 1106.1 1308.99 1156.96 1307.69L1154.36 1208.56L1132.18 1198.13C1110.01 1183.78 1087.84 1165.52 1076.1 1142.04C1068.27 1125.09 1068.27 1105.52 1077.4 1088.57C1091.75 1062.48 1121.75 1050.74 1147.83 1040.31V1032.48H957.404C957.404 1033.78 956.1 1033.78 956.1 1035.09L1060.45 1284.21H1052.62L950.883 1044.22V1284.21H943.057V1044.22L842.624 1284.21H834.798L939.144 1033.78C936.535 1032.48 935.231 1029.87 935.231 1025.96C935.231 1019.44 940.448 1014.22 948.274 1014.22C952.187 1014.22 956.1 1016.83 958.709 1020.74L1146.53 1005.09V972.481C1046.1 967.264 965.23 926.83 953.491 874.658H1378.7ZM1176.53 1220.3L1173.92 1307.69C1180.44 1307.69 1185.66 1307.69 1192.18 1308.99L1214.35 1281.6C1218.27 1275.08 1223.48 1264.65 1219.57 1256.82C1214.35 1245.08 1206.53 1237.26 1196.09 1230.74L1176.53 1220.3ZM1153.05 1196.82L1149.14 1065.09C1146.53 1066.39 1142.62 1067.7 1140.01 1069C1121.75 1076.83 1099.57 1088.57 1094.36 1108.13C1090.44 1119.87 1094.36 1132.91 1100.88 1143.35C1111.31 1159 1126.97 1172.04 1142.62 1182.48C1145.23 1185.08 1149.14 1187.69 1153.05 1189V1196.82ZM833.494 1286.82C854.363 1308.99 897.406 1324.65 948.274 1324.65C997.838 1324.65 1040.88 1308.99 1061.75 1286.82H833.494ZM1497.39 1286.82C1476.52 1308.99 1433.48 1324.65 1383.92 1324.65C1334.35 1324.65 1291.31 1308.99 1269.14 1286.82H1497.39Z" fill="#D7B56D"/>
<path fill-rule="evenodd" clip-rule="evenodd" d="M1274.35 1362.47L1246.96 1367.69L1223.48 1378.12L1201.31 1389.86L1183.05 1406.82L1168.7 1427.69L1155.66 1406.82L1138.7 1391.17L1116.53 1378.12L1093.05 1368.99L1066.97 1362.47L1038.27 1359.86L1006.97 1358.56L975.665 1359.86L944.361 1362.47L913.058 1366.39L880.45 1371.6L850.45 1378.12L821.755 1383.34L794.365 1389.86L769.583 1395.08L747.409 1400.3L926.101 1005.09L920.884 1011.61L918.275 1014.22H914.362L717.41 1431.6H748.714L773.496 1430.3L803.495 1428.99H836.103L871.32 1427.69L907.84 1426.38H944.361L980.882 1425.08L1014.79 1423.78L1044.79 1422.47H1069.58L1090.44 1421.17L1104.79 1419.86H1117.84L1124.36 1423.78L1125.66 1431.6L1119.14 1434.21L1116.53 1435.51L1115.23 1438.12V1442.04H1222.18V1435.51L1219.57 1434.21L1213.05 1431.6L1214.35 1423.78L1219.57 1419.86H1233.92L1246.96 1421.17L1267.83 1422.47H1293.92L1323.92 1423.78L1357.83 1425.08L1393.05 1426.38H1429.57L1466.09 1427.69L1501.3 1428.99H1535.22L1563.91 1430.3L1588.69 1431.6H1620L1423.05 1014.22H1420.44L1417.83 1011.61L1412.61 1003.79L1590 1400.3L1567.82 1395.08L1544.35 1389.86L1516.96 1383.34L1488.26 1378.12L1458.26 1371.6L1426.96 1366.39L1395.65 1362.47L1363.05 1358.56L1333.05 1357.25L1303.05 1358.56L1274.35 1362.47Z" fill="#D9DADA"/>
<path d="M1799.99 1787.68V2121.58H545.24V1787.68C466.981 1708.12 403.07 1612.9 360.027 1507.25C316.985 1404.21 293.507 1292.04 293.507 1174.65C293.507 690.749 688.715 295.541 1172.62 295.541C1413.92 295.541 1634.34 394.669 1793.47 553.796C1952.6 712.922 2050.42 932.047 2050.42 1174.65C2050.42 1292.04 2028.25 1404.21 1985.21 1507.25C1942.16 1612.9 1878.25 1708.12 1799.99 1787.68ZM1776.52 1783.77L1780.43 1775.94C1858.69 1696.38 1921.29 1602.47 1964.34 1498.12C2006.07 1398.99 2028.25 1289.43 2028.25 1174.65C2028.25 938.569 1931.73 724.661 1776.52 569.447C1622.61 414.234 1408.7 319.019 1172.62 319.019C700.454 319.019 316.985 702.488 316.985 1174.65C316.985 1289.43 339.158 1398.99 380.897 1498.12C423.939 1602.47 486.546 1696.38 564.805 1775.94L567.414 1783.77V2098.11H1776.52V1783.77Z" fill="#D7B56D" stroke="#D7B56D" stroke-width="2.3612"/>
<path d="M1799.99 1787.68V2121.58H545.24V1787.68C466.981 1708.12 403.07 1612.9 360.027 1507.25C316.985 1404.21 293.507 1292.04 293.507 1174.65C293.507 690.749 688.715 295.541 1172.62 295.541C1413.92 295.541 1634.34 394.669 1793.47 553.796C1952.6 712.922 2050.42 932.047 2050.42 1174.65C2050.42 1292.04 2028.25 1404.21 1985.21 1507.25C1942.16 1612.9 1878.25 1708.12 1799.99 1787.68ZM1776.52 1783.77L1780.43 1775.94C1858.69 1696.38 1921.29 1602.47 1964.34 1498.12C2006.07 1398.99 2028.25 1289.43 2028.25 1174.65C2028.25 938.569 1931.73 724.661 1776.52 569.447C1622.61 414.234 1408.7 319.019 1172.62 319.019C700.454 319.019 316.985 702.488 316.985 1174.65C316.985 1289.43 339.158 1398.99 380.897 1498.12C423.939 1602.47 486.546 1696.38 564.805 1775.94L567.414 1783.77V2098.11H1776.52V1783.77Z" fill="#D7B56D" stroke="#D7B56D" stroke-width="2.3612"/>
<path d="M1060.69 1862.61V1997H1027.16V1924.95C1027.16 1914.55 1026.91 1908.29 1026.41 1906.19C1025.91 1904.09 1024.53 1902.51 1022.26 1901.46C1020.04 1900.35 1015.06 1899.8 1007.32 1899.8H1004V1884.11C1020.21 1880.62 1032.52 1873.46 1040.94 1862.61H1060.69ZM1073.72 1961.31H1107.26C1107.26 1967.56 1107.34 1971.52 1107.51 1973.18C1107.67 1974.78 1108.34 1976.14 1109.5 1977.24C1110.72 1978.35 1112.35 1978.9 1114.4 1978.9C1116.11 1978.9 1117.52 1978.38 1118.63 1977.33C1119.74 1976.28 1120.35 1974.92 1120.46 1973.26C1120.62 1971.6 1120.71 1968.25 1120.71 1963.22V1941.8C1119.05 1945.4 1116.56 1948.11 1113.23 1949.93C1109.91 1951.7 1105.79 1952.59 1100.87 1952.59C1094.72 1952.59 1089.3 1950.93 1084.6 1947.61C1079.89 1944.29 1076.91 1940.31 1075.63 1935.66C1074.36 1931.01 1073.72 1924.73 1073.72 1916.81V1906.11C1073.72 1896.7 1074.08 1889.7 1074.8 1885.1C1075.58 1880.51 1077.51 1876.28 1080.61 1872.4C1083.71 1868.48 1088 1865.43 1093.48 1863.27C1098.96 1861.12 1105.32 1860.04 1112.57 1860.04C1121.54 1860.04 1128.9 1861.28 1134.65 1863.77C1140.41 1866.26 1144.86 1869.86 1148.02 1874.56C1151.17 1879.21 1153 1884.11 1153.49 1889.26C1153.99 1894.4 1154.24 1904.36 1154.24 1919.14V1937.81C1154.24 1953.81 1154.02 1964.52 1153.58 1969.94C1153.13 1975.31 1151.2 1980.4 1147.77 1985.21C1144.39 1990.03 1139.8 1993.65 1133.99 1996.09C1128.18 1998.47 1121.45 1999.66 1113.82 1999.66C1104.35 1999.66 1096.61 1998.13 1090.57 1995.09C1084.6 1992.05 1080.28 1987.76 1077.62 1982.22C1075.02 1976.69 1073.72 1969.72 1073.72 1961.31ZM1107.26 1919.39C1107.26 1925.03 1107.98 1928.52 1109.42 1929.85C1110.91 1931.17 1112.43 1931.84 1113.98 1931.84C1116.31 1931.84 1117.99 1931.01 1119.05 1929.35C1120.15 1927.63 1120.71 1924.31 1120.71 1919.39V1895.07C1120.71 1889.14 1120.18 1885.27 1119.13 1883.44C1118.13 1881.62 1116.44 1880.71 1114.06 1880.71C1112.63 1880.71 1111.13 1881.42 1109.58 1882.86C1108.03 1884.25 1107.26 1888.04 1107.26 1894.24V1919.39ZM1228.86 1920.88C1233.96 1922.6 1237.75 1925.42 1240.24 1929.35C1242.73 1933.22 1243.97 1942.35 1243.97 1956.74C1243.97 1967.42 1242.75 1975.72 1240.32 1981.64C1237.88 1987.51 1233.68 1991.99 1227.7 1995.09C1221.73 1998.13 1214.06 1999.66 1204.71 1999.66C1194.08 1999.66 1185.73 1997.88 1179.64 1994.34C1173.61 1990.75 1169.62 1986.37 1167.69 1981.23C1165.81 1976.03 1164.87 1967.03 1164.87 1954.25V1943.63H1198.4V1965.46C1198.4 1971.27 1198.73 1974.97 1199.4 1976.58C1200.12 1978.13 1201.67 1978.9 1204.05 1978.9C1206.65 1978.9 1208.36 1977.91 1209.19 1975.92C1210.02 1973.92 1210.44 1968.72 1210.44 1960.31V1951.01C1210.44 1945.87 1209.86 1942.1 1208.69 1939.72C1207.53 1937.34 1205.82 1935.8 1203.55 1935.08C1201.28 1934.3 1196.88 1933.86 1190.35 1933.75V1914.24C1198.32 1914.24 1203.24 1913.94 1205.12 1913.33C1207.01 1912.72 1208.36 1911.39 1209.19 1909.34C1210.02 1907.3 1210.44 1904.09 1210.44 1899.71V1892.24C1210.44 1887.54 1209.94 1884.44 1208.94 1882.95C1208 1881.45 1206.51 1880.71 1204.46 1880.71C1202.14 1880.71 1200.53 1881.51 1199.65 1883.11C1198.82 1884.66 1198.4 1888.01 1198.4 1893.16V1904.2H1164.87V1892.74C1164.87 1879.9 1167.8 1871.24 1173.66 1866.76C1179.53 1862.22 1188.85 1859.95 1201.64 1859.95C1217.63 1859.95 1228.48 1863.08 1234.18 1869.33C1239.88 1875.59 1242.73 1884.27 1242.73 1895.4C1242.73 1902.92 1241.7 1908.37 1239.66 1911.75C1237.61 1915.07 1234.01 1918.11 1228.86 1920.88ZM1320.01 1920.8C1324.93 1922.79 1328.72 1925.78 1331.38 1929.76C1334.04 1933.69 1335.36 1943.1 1335.36 1957.99C1335.36 1968.83 1334.31 1976.83 1332.21 1981.98C1330.11 1987.12 1326.01 1991.35 1319.92 1994.68C1313.84 1997.94 1305.67 1999.57 1295.44 1999.57C1285.48 1999.57 1277.59 1998 1271.78 1994.84C1265.97 1991.69 1261.79 1987.51 1259.25 1982.31C1256.76 1977.11 1255.51 1968.44 1255.51 1956.33C1255.51 1948.19 1256.12 1941.14 1257.34 1935.16C1258.61 1929.18 1262.54 1924.4 1269.12 1920.8C1264.97 1918.81 1261.85 1915.65 1259.74 1911.34C1257.7 1906.96 1256.67 1901.43 1256.67 1894.73C1256.67 1883.17 1259.88 1874.51 1266.3 1868.75C1272.72 1862.94 1282.32 1860.04 1295.1 1860.04C1309.88 1860.04 1320.09 1863.11 1325.73 1869.25C1331.38 1875.39 1334.2 1884.16 1334.2 1895.56C1334.2 1902.81 1333.26 1908.04 1331.38 1911.25C1329.55 1914.46 1325.76 1917.64 1320.01 1920.8ZM1301.16 1891.91C1301.16 1887.37 1300.75 1884.39 1299.92 1882.95C1299.14 1881.45 1297.62 1880.71 1295.35 1880.71C1293.14 1880.71 1291.65 1881.51 1290.87 1883.11C1290.1 1884.66 1289.71 1887.6 1289.71 1891.91V1902.12C1289.71 1906.16 1290.15 1908.96 1291.04 1910.51C1291.92 1912.05 1293.42 1912.83 1295.52 1912.83C1297.73 1912.83 1299.23 1912.08 1300 1910.59C1300.78 1909.04 1301.16 1905.88 1301.16 1901.13V1891.91ZM1301.83 1947.78C1301.83 1942.63 1301.3 1939.23 1300.25 1937.57C1299.2 1935.85 1297.54 1934.99 1295.27 1934.99C1293.06 1934.99 1291.45 1935.82 1290.46 1937.48C1289.52 1939.09 1289.05 1942.52 1289.05 1947.78V1965.21C1289.05 1971.02 1289.57 1974.75 1290.62 1976.41C1291.73 1978.07 1293.44 1978.9 1295.77 1978.9C1298.15 1978.9 1299.75 1978.07 1300.58 1976.41C1301.41 1974.7 1301.83 1970.88 1301.83 1964.96V1947.78Z" fill="#006CB5"/>
<path d="M635.463 1687.95C639.024 1691.73 642.417 1692.17 645.641 1689.27L664.198 1672.58C666.667 1670.36 668.672 1669.05 670.214 1668.66C671.7 1668.27 672.548 1668.19 672.757 1668.43L686.394 1683.59C683.331 1683.98 679.94 1685.84 676.223 1689.19L660.367 1703.45C656.998 1706.48 653.592 1707.87 650.148 1707.6C646.678 1707.31 642.515 1705.22 637.659 1701.34L637.572 1701.42C644.555 1710.06 644.431 1717.63 637.2 1724.13L622.258 1737.57C618.57 1740.89 616.399 1744.03 615.745 1746.98L602.108 1731.82C601.89 1731.23 602.138 1730.22 602.849 1728.79C603.532 1727.39 604.933 1725.73 607.053 1723.83L624.609 1708.03C627.832 1705.13 627.791 1701.73 624.485 1697.82L595.211 1724.15L578.675 1705.77L607.949 1679.44C604.358 1675.68 600.951 1675.25 597.727 1678.15L580.172 1693.94C577.732 1696.14 575.769 1697.43 574.282 1697.82C572.796 1698.21 571.935 1698.28 571.7 1698.02L558.063 1682.86C561.068 1682.52 564.415 1680.69 568.103 1677.37L583.045 1663.93C590.276 1657.43 597.832 1658.12 605.713 1666L605.8 1665.92C602.454 1660.68 600.818 1656.32 600.891 1652.84C600.964 1649.36 602.686 1646.11 606.054 1643.07L621.911 1628.81C625.628 1625.47 627.843 1622.29 628.555 1619.29L642.192 1634.45C642.407 1635.1 642.158 1636.13 641.446 1637.56C640.709 1638.96 639.28 1640.61 637.16 1642.52L618.602 1659.21C615.379 1662.11 615.487 1665.56 618.926 1669.56L649.246 1642.29L665.782 1660.67L635.463 1687.95Z" fill="#006CB5"/>
<path d="M588.397 1563.82L600.364 1580.62L565.193 1605.68L607.81 1591.07L620.355 1608.68L543.045 1663.76L531.078 1646.96L565.963 1622.11L523.055 1635.7L511.088 1618.9L588.397 1563.82Z" fill="#006CB5"/>
<path d="M473.143 1556.57L489.498 1546.93L496.936 1559.55L562.305 1521.02L574.831 1542.28L509.462 1580.8L516.87 1593.37L500.515 1603.01L473.143 1556.57Z" fill="#006CB5"/>
<path d="M491.928 1468.6C500.568 1464.58 506.794 1461.94 510.604 1460.68C514.362 1459.4 518.231 1459.15 522.211 1459.93C526.175 1460.67 529.803 1462.49 533.095 1465.4C536.387 1468.3 539.162 1472.18 541.421 1477.03C543.564 1481.64 544.75 1486.12 544.977 1490.5C545.152 1494.86 544.255 1498.85 542.283 1502.48C540.312 1506.12 537.655 1508.97 534.311 1511.04C530.968 1513.12 524.87 1516.21 516.017 1520.34L501.303 1527.19C492.662 1531.21 486.463 1533.86 482.705 1535.14C478.895 1536.39 475.008 1536.65 471.044 1535.91C467.064 1535.14 463.428 1533.3 460.136 1530.39C456.844 1527.48 454.069 1523.61 451.81 1518.75C449.666 1514.15 448.507 1509.67 448.331 1505.31C448.104 1500.94 448.976 1496.94 450.947 1493.3C452.919 1489.67 455.576 1486.82 458.919 1484.74C462.263 1482.67 468.361 1479.57 477.214 1475.45L491.928 1468.6ZM474.081 1504.12C470.079 1505.98 467.637 1507.4 466.753 1508.37C465.818 1509.32 465.672 1510.49 466.315 1511.87C466.859 1513.04 467.74 1513.73 468.957 1513.94C470.123 1514.13 472.919 1513.19 477.345 1511.13L517.503 1492.43C522.496 1490.11 525.486 1488.48 526.474 1487.55C527.444 1486.58 527.583 1485.35 526.891 1483.86C526.182 1482.34 525.056 1481.68 523.512 1481.88C521.969 1482.08 518.665 1483.36 513.601 1485.72L474.081 1504.12Z" fill="#006CB5"/>
<path d="M403.341 1387.43L493.345 1357.46L500.157 1377.92L439.395 1398.15L502.879 1386.09L507.71 1400.6L451.207 1428.99L510.58 1409.22L517.392 1429.67L427.388 1459.65L417.299 1429.35C422.414 1426.66 428.474 1423.59 435.479 1420.14L457.309 1409.29L413.504 1417.95L403.341 1387.43Z" fill="#006CB5"/>
<path d="M479.303 1293.51L483.64 1313.67L441.422 1322.75L486.338 1326.22L490.885 1347.36L398.085 1367.32L393.748 1347.15L435.623 1338.15L390.84 1333.63L386.504 1313.47L479.303 1293.51Z" fill="#006CB5"/>
<path d="M382.216 1288.6L379.307 1263.92C378.52 1257.25 378.44 1252.07 379.067 1248.38C379.689 1244.65 380.884 1241.77 382.652 1239.75C384.415 1237.7 386.676 1236.19 389.435 1235.24C392.151 1234.25 396.457 1233.41 402.353 1232.71L410.558 1231.74C416.571 1231.03 421.028 1231.14 423.929 1232.05C426.829 1232.97 429.214 1235.01 431.081 1238.17C432.944 1241.3 434.191 1245.53 434.822 1250.89L435.598 1257.46L473.538 1252.99L476.427 1277.49L382.216 1288.6ZM395.446 1262.2L419.421 1259.37C419.377 1258.67 419.326 1258.06 419.266 1257.56C419.001 1255.31 418.275 1253.82 417.088 1253.1C415.858 1252.34 413.497 1252.16 410.006 1252.58L402.266 1253.49C399.046 1253.87 397.011 1254.62 396.16 1255.74C395.309 1256.86 395.071 1259.02 395.446 1262.2Z" fill="#006CB5"/>
<path d="M414.393 1160.27L414.961 1184.93L398.442 1185.31C393.638 1185.42 390.657 1185.76 389.498 1186.33C388.299 1186.87 387.72 1188.04 387.761 1189.83C387.808 1191.86 388.56 1193.14 390.018 1193.65C391.475 1194.16 394.606 1194.36 399.409 1194.25L443.46 1193.24C448.068 1193.13 451.069 1192.79 452.462 1192.21C453.855 1191.63 454.53 1190.39 454.486 1188.47C454.444 1186.64 453.714 1185.46 452.295 1184.95C450.876 1184.4 447.569 1184.18 442.375 1184.3L430.484 1184.57L429.917 1159.91L433.607 1159.83C443.409 1159.6 450.377 1160.14 454.51 1161.45C458.641 1162.73 462.305 1165.71 465.499 1170.4C468.693 1175.06 470.37 1180.86 470.53 1187.81C470.696 1195.04 469.525 1201.02 467.016 1205.77C464.507 1210.52 460.966 1213.7 456.393 1215.33C451.781 1216.96 444.828 1217.88 435.533 1218.1L407.826 1218.73C400.992 1218.89 395.87 1218.78 392.462 1218.38C389.015 1217.99 385.683 1216.68 382.467 1214.45C379.25 1212.18 376.696 1209.02 374.805 1204.96C372.874 1200.86 371.848 1196.14 371.724 1190.79C371.557 1183.52 372.825 1177.5 375.529 1172.71C378.232 1167.92 381.675 1164.73 385.858 1163.15C390.003 1161.57 396.508 1160.68 405.372 1160.47L414.393 1160.27Z" fill="#006CB5"/>
<path d="M450.119 1082.36C457.171 1082.86 462.171 1084.14 465.117 1086.2C468.064 1088.25 469.793 1091.17 470.303 1094.97C470.817 1098.73 470.782 1104.68 470.197 1112.82L468.155 1141.28L373.476 1134.49L375.246 1109.82L407.682 1112.15L407.955 1108.35C408.5 1100.75 409.361 1095.04 410.536 1091.21C411.712 1087.38 413.908 1084.62 417.123 1082.93C420.301 1081.2 425.164 1080.57 431.709 1081.04L450.119 1082.36ZM445.485 1106.82L431.81 1105.83C427.836 1105.55 425.39 1105.78 424.475 1106.54C423.562 1107.26 422.912 1109.48 422.527 1113.22L453.619 1115.45C453.843 1112.33 453.604 1110.2 452.903 1109.05C452.166 1107.86 449.693 1107.12 445.485 1106.82Z" fill="#006CB5"/>
<path d="M379.212 1064.02L383.23 1039.62L422.794 1046.02C423.434 1041.41 421.281 1038.62 416.334 1037.65L398.14 1034.18C391.421 1032.91 387.088 1030.85 385.144 1028L388.847 1005.51C390.759 1008.08 395.284 1009.94 402.421 1011.07L418.512 1013.6C428.238 1015.12 432.868 1021.51 432.401 1032.75C435.566 1021.95 442.075 1017.4 451.93 1019.11L466.827 1021.68C473.912 1022.88 479.139 1022.64 482.508 1020.93L478.804 1043.42C476.021 1045.66 471.257 1046.22 464.512 1045.11L446.243 1042.1C443.93 1041.72 441.962 1042.13 440.34 1043.33C438.685 1044.48 437.655 1046.17 437.248 1048.4L476.89 1055.05L472.872 1079.44L379.212 1064.02Z" fill="#006CB5"/>
<path d="M497.855 961.643L492.565 981.578L450.826 970.503L489.274 993.981L483.729 1014.88L391.982 990.534L397.272 970.599L438.671 981.584L400.819 957.233L406.108 937.298L497.855 961.643Z" fill="#006CB5"/>
<path d="M521.541 895.469L514.266 914.769L473.858 899.538L509.74 926.776L502.114 947.008L413.292 913.528L420.567 894.229L460.646 909.336L425.444 881.289L432.719 861.99L521.541 895.469ZM406 874.398L409.514 865.077C414.402 867.171 417.853 870.141 419.868 873.99C421.896 877.802 422.007 882.102 420.202 886.89C418.384 891.715 415.455 894.89 411.415 896.414C407.353 897.889 402.813 897.806 397.796 896.165L401.309 886.844C406.482 888.293 409.764 887.172 411.156 883.48C412.561 879.752 410.843 876.724 406 874.398Z" fill="#006CB5"/>
<path d="M546.273 796.293C552.499 799.643 556.536 802.857 558.384 805.936C560.232 809.015 560.611 812.391 559.522 816.063C558.452 819.701 555.983 825.115 552.115 832.304L538.594 857.433L455.004 812.458L477.908 769.889L492.407 777.69L481.219 798.485L495.357 806.092L497.162 802.738C500.771 796.03 503.896 791.169 506.538 788.154C509.18 785.14 512.313 783.521 515.938 783.298C519.546 783.021 524.24 784.438 530.019 787.547L546.273 796.293ZM532.029 816.707L519.955 810.211C516.446 808.323 514.119 807.537 512.974 807.852C511.847 808.133 510.343 809.896 508.463 813.143L535.914 827.913C537.395 825.161 538.05 823.118 537.88 821.785C537.695 820.399 535.744 818.706 532.029 816.707Z" fill="#006CB5"/>
<path d="M512.733 715.147L599.411 756.2L585.358 777.184L570.507 768.718L565.583 776.069L578.935 786.774L564.72 808.001L492.877 744.796L512.733 715.147ZM556.143 759.945C546.522 755.006 534.807 748.665 520.999 740.922C534.668 753.085 544.817 761.763 551.448 766.955L556.143 759.945Z" fill="#006CB5"/>
<path d="M592.892 677.896C596.093 675.862 599.324 675.033 602.586 675.409C605.818 675.76 611.383 679.128 619.283 685.511C625.146 690.25 629.164 694.601 631.334 698.565C633.474 702.505 634.069 706.802 633.119 711.459C632.138 716.09 629.573 720.973 625.424 726.108C620.71 731.941 616.03 735.743 611.385 737.514C606.734 739.23 602.566 739.477 598.881 738.257C595.191 736.982 589.836 733.509 582.818 727.838L576.985 723.124L591.863 704.712L603.849 714.398C607.039 716.976 609.222 718.439 610.398 718.786C611.568 719.079 612.68 718.572 613.736 717.265C614.89 715.837 615.104 714.454 614.379 713.114C613.654 711.774 610.982 709.239 606.364 705.507L601.26 701.382C598.434 699.098 596.11 697.748 594.288 697.33C592.466 696.912 590.854 697.167 589.453 698.093C588.021 698.995 585.826 701.214 582.868 704.75L572.158 696.095C575.694 691.72 577.712 688.881 578.212 687.578C578.713 686.275 578.585 684.942 577.83 683.577C577.074 682.213 575.496 680.561 573.095 678.622L568.994 675.307C566.411 673.22 564.489 672.119 563.227 672.003C561.989 671.856 560.916 672.345 560.008 673.469C558.976 674.745 558.705 675.982 559.193 677.181C559.676 678.324 561.33 680.037 564.155 682.32L570.216 687.219L555.338 705.63L549.049 700.548C542 694.852 538.546 689.399 538.688 684.19C538.799 678.956 541.691 672.83 547.362 665.812C554.458 657.031 560.987 652.464 566.949 652.109C572.911 651.754 578.945 654.044 585.052 658.979C589.184 662.318 591.722 665.298 592.667 667.92C593.582 670.518 593.657 673.843 592.892 677.896Z" fill="#006CB5"/>
<path d="M656.815 631.2C663.581 637.913 668.214 642.839 670.712 645.978C673.21 649.062 674.784 652.605 675.435 656.607C676.114 660.582 675.66 664.617 674.074 668.711C672.488 672.805 669.811 676.752 666.041 680.551C662.465 684.156 658.664 686.822 654.638 688.551C650.611 690.224 646.553 690.764 642.463 690.173C638.373 689.581 634.776 688.076 631.673 685.658C628.57 683.239 623.552 678.591 616.619 671.713L605.098 660.281C598.332 653.568 593.7 648.67 591.202 645.586C588.703 642.447 587.115 638.89 586.436 634.915C585.785 630.912 586.253 626.864 587.839 622.77C589.425 618.676 592.102 614.729 595.872 610.93C599.448 607.325 603.25 604.686 607.276 603.013C611.302 601.285 615.36 600.716 619.45 601.308C623.541 601.9 627.137 603.405 630.24 605.823C633.344 608.242 638.361 612.89 645.294 619.768L656.815 631.2ZM617.313 626.756C614.179 623.647 612.004 621.846 610.787 621.354C609.569 620.806 608.424 621.073 607.351 622.155C606.443 623.07 606.102 624.134 606.328 625.349C606.553 626.508 608.399 628.807 611.865 632.246L643.311 663.446C647.221 667.325 649.784 669.566 651.002 670.169C652.247 670.744 653.448 670.449 654.603 669.285C655.786 668.092 656.016 666.807 655.293 665.429C654.569 664.051 652.225 661.394 648.259 657.46L617.313 626.756Z" fill="#006CB5"/>
<path d="M633.539 572.836L652.617 557.291C658.644 552.381 663.584 549.137 667.438 547.559C671.322 545.956 675.39 545.816 679.641 547.139C683.869 548.431 688.573 552.257 693.755 558.616C697.258 562.917 699.02 566.47 699.039 569.276C699.088 572.057 697.499 575.519 694.272 579.659C699.508 577.056 703.863 576.279 707.337 577.328C710.787 578.346 714.462 581.248 718.36 586.033L723.912 592.847C727.958 597.813 730.381 601.961 731.179 605.291C732.008 608.597 731.539 611.7 729.771 614.601C728.003 617.503 723.273 622.087 715.581 628.354L693.459 646.379L633.539 572.836ZM662.915 569.837L676.239 586.19C677.032 585.493 677.655 584.96 678.11 584.59C679.987 583.06 680.813 581.631 680.588 580.303C680.338 578.945 678.436 576.086 674.883 571.725C673.008 569.423 671.488 567.991 670.324 567.428C669.135 566.835 668.094 566.701 667.2 567.026C666.336 567.326 664.908 568.263 662.915 569.837ZM685.565 597.637L702.331 618.214C704.953 615.928 706.318 614.11 706.428 612.76C706.568 611.386 705.429 609.216 703.011 606.248L697.423 599.389C694.857 596.239 692.969 594.603 691.76 594.479C690.551 594.356 688.486 595.408 685.565 597.637Z" fill="#006CB5"/>
<path d="M793.8 571.532L776.622 582.947L752.722 546.98L765.935 590.049L747.927 602.015L695.391 522.957L712.569 511.542L736.275 547.216L724.087 503.889L741.265 492.474L793.8 571.532Z" fill="#006CB5"/>
<path d="M855.283 537.66L837.051 547.303L816.861 509.13L825.708 553.303L806.595 563.412L762.216 479.503L780.448 469.86L800.473 507.723L792.671 463.395L810.903 453.752L855.283 537.66ZM782.666 445.355L791.471 440.698C793.748 445.503 794.366 450.015 793.327 454.232C792.322 458.432 789.558 461.728 785.034 464.12C780.476 466.531 776.179 466.97 772.143 465.437C768.122 463.851 764.776 460.783 762.103 456.231L770.908 451.573C773.825 456.085 777.027 457.418 780.514 455.574C784.036 453.711 784.753 450.305 782.666 445.355Z" fill="#006CB5"/>
<path d="M964.734 447.147C966.777 453.012 967.971 457.332 968.317 460.107C968.789 463.955 968.271 467.755 966.765 471.506C964.409 477.331 957.827 482.126 947.019 485.891L942.924 487.317L948.089 502.146L924.738 510.279L919.573 495.45L915.977 496.702C905.131 500.48 896.976 500.818 891.511 497.716C888.001 495.712 885.235 493.056 883.214 489.748C881.761 487.358 880.013 483.231 877.971 477.365L877.431 475.816C875.388 469.951 874.194 465.63 873.848 462.856C873.376 459.007 873.893 455.208 875.4 451.457C877.757 445.755 884.377 441.009 895.259 437.219C896.071 436.936 897.25 436.463 898.798 435.8L893.517 420.639L916.868 412.506L922.149 427.667C924.069 427.123 925.453 426.703 926.301 426.407C937.183 422.617 945.301 422.23 950.653 425.247C954.164 427.251 956.93 429.907 958.951 433.215C960.403 435.605 962.151 439.732 964.194 445.597L964.734 447.147ZM943.192 460.296L939.164 448.731C938.098 445.669 936.635 443.428 934.775 442.007C932.952 440.574 931.155 440.166 929.385 440.783L927.005 441.611L938.067 473.373L940.447 472.544C942.217 471.927 943.372 470.491 943.91 468.236C944.485 465.967 944.246 463.32 943.192 460.296ZM914.717 481.506L903.654 449.744L901.718 450.419C899.984 451.022 898.83 452.459 898.255 454.727C897.717 456.983 897.981 459.641 899.047 462.703L903.075 474.268C904.129 477.293 905.567 479.522 907.39 480.955C909.249 482.376 911.046 482.784 912.78 482.18L914.717 481.506Z" fill="#006CB5"/>
<path d="M998.882 390.522L1033.69 479.892L1009.06 485.492L1004.08 469.139L995.453 471.101L997.806 488.052L972.895 493.717L964.086 398.435L998.882 390.522ZM999.666 452.897C996.065 442.699 991.906 430.045 987.187 414.934C988.769 433.162 990.186 446.44 991.439 454.768L999.666 452.897Z" fill="#006CB5"/>
<path d="M1033.77 383.503L1058.4 380.24C1065.06 379.358 1070.24 379.203 1073.94 379.777C1077.68 380.345 1080.58 381.499 1082.62 383.238C1084.7 384.972 1086.24 387.211 1087.23 389.956C1088.26 392.657 1089.16 396.95 1089.94 402.836L1091.03 411.027C1091.82 417.029 1091.78 421.487 1090.91 424.4C1090.03 427.314 1088.03 429.727 1084.89 431.64C1081.8 433.547 1077.58 434.855 1072.23 435.563L1065.67 436.433L1070.69 474.305L1046.23 477.545L1033.77 383.503ZM1060.36 396.353L1063.53 420.285C1064.23 420.231 1064.84 420.171 1065.34 420.104C1067.58 419.807 1069.06 419.059 1069.77 417.862C1070.51 416.621 1070.65 414.258 1070.19 410.773L1069.17 403.048C1068.74 399.833 1067.96 397.809 1066.83 396.974C1065.69 396.14 1063.54 395.933 1060.36 396.353Z" fill="#006CB5"/>
<path d="M1179.8 372.215L1182.61 467.036L1161.06 467.675L1159.16 403.66L1152.45 467.93L1137.16 468.383L1126.23 406.101L1128.08 468.652L1106.53 469.29L1103.72 374.468L1135.64 373.523C1136.75 379.196 1137.94 385.882 1139.23 393.582L1143.34 417.611L1147.65 373.167L1179.8 372.215Z" fill="#006CB5"/>
<path d="M1242.4 376.423L1248.96 472.107L1223.78 470.106L1223.91 453.012L1215.09 452.31L1212.28 469.192L1186.81 467.167L1206.83 373.596L1242.4 376.423ZM1224.54 436.192C1224.15 425.385 1223.95 412.066 1223.95 396.235C1220.03 414.105 1217.42 427.201 1216.13 435.524L1224.54 436.192Z" fill="#006CB5"/>
<path d="M1318.98 500.321L1302.19 497.312L1305.08 481.221L1261.02 473.321L1277.77 379.888L1302.11 384.252L1288.7 458.998L1295.91 460.29L1309.32 385.545L1333.65 389.908L1320.25 464.654L1325.21 465.543L1318.98 500.321Z" fill="#006CB5"/>
<path d="M1359.03 395.73L1398.69 406.647L1393.65 424.95L1377.78 420.581L1373 437.924L1387.86 442.014L1383.07 459.413L1368.22 455.324L1362.68 475.435L1380.14 480.24L1375.1 498.544L1333.86 487.192L1359.03 395.73Z" fill="#006CB5"/>
<path d="M1418.73 412.606L1441.86 421.03C1449.16 423.691 1454.48 426.273 1457.81 428.774C1461.17 431.289 1463.38 434.711 1464.42 439.041C1465.47 443.333 1464.6 449.333 1461.79 457.041C1459.89 462.252 1457.74 465.585 1455.34 467.039C1452.98 468.506 1449.19 468.914 1443.98 468.263C1448.9 471.427 1451.8 474.769 1452.67 478.29C1453.57 481.775 1452.96 486.417 1450.84 492.216L1447.84 500.474C1445.64 506.493 1443.32 510.699 1440.87 513.09C1438.45 515.495 1435.55 516.681 1432.15 516.649C1428.75 516.617 1422.39 514.902 1413.07 511.506L1386.26 501.738L1418.73 412.606ZM1436.36 436.3L1429.14 456.119C1430.14 456.444 1430.92 456.706 1431.47 456.907C1433.74 457.736 1435.39 457.713 1436.42 456.84C1437.46 455.929 1438.94 452.831 1440.86 447.546C1441.88 444.757 1442.33 442.718 1442.22 441.43C1442.12 440.105 1441.7 439.142 1440.97 438.541C1440.26 437.953 1438.73 437.206 1436.36 436.3ZM1424.08 469.993L1414.99 494.932C1418.3 496.012 1420.56 496.254 1421.78 495.657C1423.03 495.074 1424.31 492.984 1425.62 489.387L1428.65 481.074C1430.04 477.257 1430.48 474.798 1429.97 473.696C1429.45 472.594 1427.49 471.36 1424.08 469.993Z" fill="#006CB5"/>
<path d="M1531.07 458.912L1523.07 476.132L1509.79 469.966L1477.85 538.795L1455.47 528.411L1487.41 459.583L1474.18 453.441L1482.17 436.221L1531.07 458.912Z" fill="#006CB5"/>
<path d="M1543.36 574.303L1525.47 564.05L1546.94 526.581L1514.33 557.671L1495.57 546.922L1542.76 464.561L1560.66 474.814L1539.36 511.979L1572.66 481.689L1590.55 491.942L1543.36 574.303Z" fill="#006CB5"/>
<path d="M1606.04 572.778C1603.19 573.343 1600.09 573.222 1596.73 572.417C1593.4 571.579 1590.39 570.21 1587.72 568.308C1582.91 564.89 1580.36 561.063 1580.07 556.827C1579.8 552.613 1581.66 547.705 1585.65 542.102L1611.93 505.142L1632.08 519.471L1607.33 554.282C1605.18 557.307 1603.95 559.573 1603.64 561.081C1603.39 562.58 1603.87 563.76 1605.08 564.62C1608.07 566.748 1611.4 565.233 1615.07 560.076L1639.96 525.074L1660.11 539.403L1605.1 616.761L1584.95 602.432L1606.04 572.778Z" fill="#006CB5"/>
<path d="M1717.68 587.815L1655.65 659.58L1636.98 643.448L1663.04 613.306L1657.46 608.477L1631.4 638.62L1612.74 622.488L1674.78 550.722L1693.44 566.854L1671.25 592.52L1676.84 597.348L1699.02 571.683L1717.68 587.815Z" fill="#006CB5"/>
<path d="M1705.31 710.227L1691.12 695.265L1722.44 665.541L1682.29 685.956L1667.4 670.272L1736.26 604.937L1750.46 619.898L1719.39 649.38L1759.98 629.93L1774.17 644.891L1705.31 710.227Z" fill="#006CB5"/>
<path d="M1748.9 763.99L1736.18 747.751L1770.18 721.127L1728.27 737.648L1714.94 720.625L1789.67 662.103L1802.39 678.341L1768.67 704.749L1810.91 689.229L1823.63 705.467L1748.9 763.99ZM1826.9 676.19L1833.04 684.032C1828.71 687.123 1824.38 688.53 1820.05 688.253C1815.74 688.007 1812 685.869 1808.85 681.84C1805.67 677.781 1804.48 673.629 1805.27 669.385C1806.12 665.147 1808.55 661.311 1812.56 657.875L1818.7 665.717C1814.77 669.386 1814.03 672.773 1816.46 675.88C1818.92 679.017 1822.4 679.12 1826.9 676.19Z" fill="#006CB5"/>
<path d="M1856.4 849.437C1851.01 852.531 1846.99 854.504 1844.32 855.358C1840.63 856.534 1836.8 856.729 1832.84 855.943C1826.67 854.707 1820.74 849.127 1815.04 839.202L1812.88 835.442L1799.27 843.263L1786.95 821.822L1800.57 814.001L1798.67 810.698C1792.95 800.74 1791.11 792.788 1793.15 786.843C1794.46 783.023 1796.56 779.813 1799.44 777.214C1801.52 775.344 1805.25 772.863 1810.64 769.769L1812.06 768.952C1817.45 765.858 1821.47 763.885 1824.13 763.031C1827.83 761.855 1831.66 761.66 1835.62 762.446C1841.66 763.707 1847.55 769.333 1853.29 779.326C1853.72 780.071 1854.4 781.143 1855.34 782.541L1869.26 774.544L1881.58 795.986L1867.66 803.982C1868.55 805.768 1869.22 807.05 1869.66 807.829C1875.4 817.822 1877.29 825.727 1875.31 831.546C1873.99 835.367 1871.89 838.576 1869.02 841.175C1866.94 843.045 1863.21 845.527 1857.82 848.62L1856.4 849.437ZM1839.49 830.703L1850.11 824.603C1852.92 822.988 1854.85 821.136 1855.9 819.045C1856.97 816.988 1857.04 815.147 1856.11 813.521L1854.85 811.336L1825.69 828.088L1826.94 830.273C1827.88 831.898 1829.5 832.767 1831.82 832.878C1834.15 833.023 1836.71 832.298 1839.49 830.703ZM1813.37 806.646L1842.54 789.895L1841.51 788.117C1840.6 786.525 1838.98 785.656 1836.64 785.511C1834.32 785.4 1831.76 786.152 1828.95 787.767L1818.33 793.866C1815.55 795.461 1813.63 797.288 1812.56 799.344C1811.5 801.435 1811.44 803.276 1812.35 804.868L1813.37 806.646Z" fill="#006CB5"/>
<path d="M1919.78 875.054L1838.4 925.804L1828.33 902.642L1843.48 894.719L1839.96 886.604L1823.73 892.055L1813.56 868.623L1905.56 842.325L1919.78 875.054ZM1858.63 887.374C1867.98 881.947 1879.65 875.516 1893.62 868.082C1876 873.011 1863.22 876.862 1855.26 879.635L1858.63 887.374Z" fill="#006CB5"/>
<path d="M1948.14 953.371L1905.6 958.298L1859.4 987.187L1852.26 965.48C1860.39 959.929 1870.53 953.959 1882.7 947.572C1876.83 948.846 1870.53 950.013 1863.81 951.073L1848.38 953.68L1840.87 930.86L1893.92 922.787L1930.99 901.218L1938.44 923.872C1936.09 925.098 1932.22 927.275 1926.83 930.404C1922.73 932.821 1918.95 934.949 1915.49 936.788L1941.68 933.723L1948.14 953.371Z" fill="#006CB5"/>
<path d="M1913.39 1043.54C1904.08 1045.57 1897.42 1046.79 1893.43 1047.18C1889.49 1047.61 1885.65 1047.01 1881.94 1045.38C1878.23 1043.79 1875.09 1041.22 1872.51 1037.67C1869.94 1034.11 1868.08 1029.72 1866.93 1024.49C1865.85 1019.53 1865.67 1014.89 1866.4 1010.57C1867.18 1006.28 1868.93 1002.58 1871.65 999.469C1874.37 996.355 1877.58 994.151 1881.3 992.858C1885.02 991.565 1891.64 989.874 1901.18 987.786L1917.04 984.315C1926.35 982.277 1932.98 981.046 1936.92 980.622C1940.92 980.228 1944.76 980.825 1948.47 982.413C1952.19 984.039 1955.33 986.629 1957.91 990.184C1960.49 993.738 1962.35 998.129 1963.49 1003.36C1964.58 1008.32 1964.73 1012.94 1963.95 1017.23C1963.22 1021.55 1961.49 1025.27 1958.77 1028.38C1956.06 1031.5 1952.84 1033.7 1949.12 1034.99C1945.41 1036.29 1938.78 1037.98 1929.24 1040.07L1913.39 1043.54ZM1938.56 1012.77C1942.87 1011.83 1945.57 1010.98 1946.64 1010.22C1947.76 1009.5 1948.16 1008.39 1947.83 1006.9C1947.56 1005.65 1946.85 1004.78 1945.71 1004.31C1944.61 1003.87 1941.68 1004.17 1936.91 1005.22L1893.64 1014.69C1888.26 1015.87 1884.98 1016.8 1883.81 1017.5C1882.66 1018.23 1882.25 1019.4 1882.6 1021C1882.96 1022.64 1883.92 1023.54 1885.47 1023.68C1887.02 1023.82 1890.52 1023.29 1895.98 1022.09L1938.56 1012.77Z" fill="#006CB5"/>
<path d="M1974.31 1067.73L1977.1 1092.18C1977.99 1099.9 1978.05 1105.81 1977.3 1109.91C1976.55 1114.04 1974.48 1117.54 1971.07 1120.41C1967.7 1123.27 1961.94 1125.17 1953.79 1126.1C1948.28 1126.73 1944.34 1126.29 1941.97 1124.8C1939.6 1123.34 1937.54 1120.13 1935.8 1115.18C1935.16 1120.99 1933.47 1125.08 1930.71 1127.44C1927.99 1129.79 1923.56 1131.32 1917.43 1132.02L1908.7 1133.02C1902.33 1133.75 1897.53 1133.55 1894.3 1132.42C1891.07 1131.34 1888.71 1129.27 1887.22 1126.21C1885.73 1123.16 1884.43 1116.7 1883.3 1106.85L1880.06 1078.49L1974.31 1067.73ZM1960.99 1094.08L1940.03 1096.47C1940.19 1097.52 1940.3 1098.33 1940.37 1098.91C1940.64 1101.32 1941.4 1102.78 1942.64 1103.31C1943.92 1103.83 1947.35 1103.78 1952.94 1103.14C1955.89 1102.8 1957.91 1102.29 1959.02 1101.62C1960.16 1100.94 1960.83 1100.13 1961.04 1099.2C1961.25 1098.31 1961.23 1096.61 1960.99 1094.08ZM1925.36 1098.15L1898.99 1101.16C1899.5 1104.6 1900.29 1106.73 1901.37 1107.55C1902.45 1108.41 1904.89 1108.63 1908.69 1108.19L1917.48 1107.19C1921.52 1106.73 1923.92 1106.02 1924.67 1105.07C1925.43 1104.12 1925.66 1101.81 1925.36 1098.15Z" fill="#006CB5"/>
<path d="M1888.33 1197.41L1887.93 1176.79L1931.11 1175.96L1887.68 1163.96L1887.27 1142.34L1982.17 1140.51L1982.57 1161.13L1939.75 1161.96L1982.84 1174.95L1983.24 1195.57L1888.33 1197.41Z" fill="#006CB5"/>
<path d="M1884.09 1267.09L1885.72 1246.53L1928.77 1249.94L1886.73 1233.74L1888.43 1212.19L1983.06 1219.67L1981.43 1240.23L1938.73 1236.86L1980.34 1254.02L1978.72 1274.58L1884.09 1267.09ZM2000.94 1255.24L2000.15 1265.17C1994.87 1264.51 1990.73 1262.62 1987.73 1259.48C1984.72 1256.38 1983.42 1252.28 1983.82 1247.18C1984.23 1242.04 1986.16 1238.18 1989.62 1235.59C1993.11 1233.05 1997.49 1231.87 2002.77 1232.05L2001.98 1241.98C1996.61 1242.02 1993.77 1244.01 1993.46 1247.95C1993.15 1251.92 1995.64 1254.35 2000.94 1255.24Z" fill="#006CB5"/>
<path d="M1971.73 1326.81L1966.54 1350.98L1927.33 1342.7C1926.47 1347.27 1928.49 1350.16 1933.38 1351.37L1951.39 1355.71C1958.04 1357.29 1962.27 1359.56 1964.08 1362.5L1959.3 1384.79C1957.51 1382.13 1953.08 1380.06 1946.01 1378.58L1930.06 1375.28C1920.41 1373.3 1916.1 1366.7 1917.1 1355.49C1913.42 1366.12 1906.7 1370.36 1896.94 1368.18L1882.18 1364.9C1875.16 1363.36 1869.93 1363.35 1866.49 1364.89L1871.26 1342.61C1874.15 1340.51 1878.93 1340.18 1885.62 1341.61L1903.72 1345.49C1906.01 1345.98 1908 1345.67 1909.68 1344.55C1911.39 1343.48 1912.5 1341.84 1913.01 1339.63L1873.73 1331.09L1878.91 1306.91L1971.73 1326.81Z" fill="#006CB5"/>
<path d="M1885.87 1435.13C1876.81 1432.17 1870.45 1429.85 1866.81 1428.17C1863.19 1426.54 1860.2 1424.08 1857.82 1420.8C1855.42 1417.55 1854.01 1413.74 1853.59 1409.37C1853.17 1405 1853.79 1400.28 1855.45 1395.19C1857.02 1390.36 1859.22 1386.27 1862.04 1382.92C1864.88 1379.61 1868.27 1377.31 1872.19 1376C1876.11 1374.69 1879.99 1374.41 1883.85 1375.18C1887.71 1375.95 1894.28 1377.84 1903.57 1380.87L1919 1385.91C1928.06 1388.86 1934.4 1391.16 1938.02 1392.79C1941.66 1394.47 1944.68 1396.93 1947.07 1400.18C1949.45 1403.46 1950.85 1407.29 1951.27 1411.66C1951.7 1416.03 1951.08 1420.76 1949.42 1425.85C1947.84 1430.67 1945.63 1434.74 1942.79 1438.04C1939.97 1441.4 1936.6 1443.73 1932.68 1445.04C1928.76 1446.35 1924.87 1446.62 1921.01 1445.85C1917.15 1445.09 1910.58 1443.19 1901.3 1440.16L1885.87 1435.13ZM1923.15 1421.35C1927.35 1422.71 1930.1 1423.35 1931.41 1423.24C1932.74 1423.18 1933.65 1422.43 1934.12 1420.98C1934.52 1419.75 1934.35 1418.65 1933.6 1417.67C1932.88 1416.73 1930.19 1415.51 1925.55 1413.99L1883.44 1400.25C1878.2 1398.54 1874.91 1397.69 1873.55 1397.7C1872.18 1397.75 1871.24 1398.55 1870.73 1400.11C1870.21 1401.71 1870.58 1402.96 1871.84 1403.87C1873.11 1404.77 1876.4 1406.09 1881.71 1407.82L1923.15 1421.35Z" fill="#006CB5"/>
<path d="M1814.98 1502.9L1825.17 1480.38L1894.35 1511.68L1897.32 1505.11L1848.37 1482.96C1841.93 1480.05 1837.68 1477.12 1835.63 1474.17C1833.55 1471.27 1832.93 1467.96 1833.75 1464.26C1834.56 1460.55 1836.65 1455 1840 1447.6L1841.59 1444.07L1856.48 1450.81C1855.24 1453.55 1854.73 1455.59 1854.94 1456.93C1855.15 1458.27 1857.23 1459.83 1861.18 1461.62L1924.81 1490.41L1901.46 1542.03L1814.98 1502.9Z" fill="#006CB5"/>
<path d="M1892.04 1560.23L1871.72 1595.99L1855.22 1586.62L1863.35 1572.3L1847.71 1563.41L1840.1 1576.81L1824.41 1567.9L1832.02 1554.5L1813.88 1544.2L1804.94 1559.94L1788.43 1550.56L1809.56 1513.37L1892.04 1560.23Z" fill="#006CB5"/>
<path d="M1729.56 1608.62L1739.33 1594.64L1752.73 1604L1775.54 1571.33L1762.13 1561.97L1771.86 1548.04L1801.5 1568.73L1798.62 1572.87C1803.47 1579.49 1810.61 1587.12 1820.02 1595.74C1829.45 1604.42 1840.33 1613.06 1852.66 1621.67L1855.01 1623.32L1823.68 1668.19L1762.19 1625.25L1759.3 1629.38L1729.56 1608.62ZM1776.34 1604.98L1822.46 1637.18L1826.66 1631.17L1826.08 1630.77C1811.19 1620.37 1797.12 1608.17 1783.89 1594.17L1776.34 1604.98Z" fill="#006CB5"/>
<path d="M1754.64 1667.33C1758.02 1663.38 1758.1 1659.96 1754.87 1657.07L1736.28 1640.41C1733.8 1638.2 1732.29 1636.35 1731.74 1634.85C1731.19 1633.42 1731.02 1632.58 1731.23 1632.35L1744.83 1617.16C1745.55 1620.17 1747.77 1623.34 1751.5 1626.67L1767.38 1640.91C1770.76 1643.93 1772.5 1647.17 1772.6 1650.62C1772.68 1654.1 1771.06 1658.46 1767.72 1663.71L1767.81 1663.79C1775.65 1655.91 1783.19 1655.22 1790.43 1661.71L1805.4 1675.12C1809.1 1678.44 1812.45 1680.26 1815.45 1680.59L1801.85 1695.78C1801.28 1696.06 1800.25 1695.92 1798.75 1695.37C1797.29 1694.84 1795.49 1693.62 1793.37 1691.72L1775.78 1675.96C1772.55 1673.07 1769.17 1673.48 1765.64 1677.18L1794.97 1703.46L1778.47 1721.87L1749.14 1695.6C1745.79 1699.57 1745.73 1703.01 1748.96 1705.9L1766.55 1721.66C1768.99 1723.85 1770.49 1725.66 1771.04 1727.1C1771.59 1728.53 1771.74 1729.38 1771.51 1729.64L1757.9 1744.83C1757.24 1741.88 1755.06 1738.75 1751.37 1735.44L1736.4 1722.03C1729.16 1715.54 1729.03 1707.95 1736.02 1699.27L1735.93 1699.19C1731.09 1703.08 1726.93 1705.18 1723.46 1705.48C1719.99 1705.78 1716.57 1704.42 1713.19 1701.39L1697.31 1687.16C1693.58 1683.82 1690.19 1681.96 1687.12 1681.58L1700.73 1666.39C1701.35 1666.11 1702.41 1666.24 1703.91 1666.8C1705.38 1667.38 1707.17 1668.62 1709.3 1670.53L1727.89 1687.18C1731.12 1690.08 1734.54 1689.6 1738.14 1685.75L1707.77 1658.54L1724.27 1640.12L1754.64 1667.33Z" fill="#006CB5"/>
</svg>
